<svg width="590.43125px" height="167.6px" xmlns="http://www.w3.org/2000/svg" viewBox="-45.21562499999999 -8.799999999999997 590.43125 167.6" style="background: rgb(0, 0, 0);" preserveAspectRatio="xMidYMid"><defs><filter id="editing-hole" x="-100%" y="-100%" width="300%" height="300%"><feFlood flood-color="#281300" result="black"></feFlood><feMorphology operator="dilate" radius="2" in="SourceGraphic" result="erode"></feMorphology><feGaussianBlur in="erode" stdDeviation="4" result="blur"></feGaussianBlur><feOffset in="blur" dx="2" dy="2" result="offset"></feOffset><feComposite operator="atop" in="offset" in2="black" result="merge"></feComposite><feComposite operator="in" in="merge" in2="SourceGraphic" result="inner-shadow"></feComposite></filter></defs><g filter="url(#editing-hole)"><g transform="translate(90.204991817474365, 118.08000183105469)"><path d="M7.72-61.18L17.85-61.18L17.85-7.55L45.99-7.55L45.99 0L7.72 0L7.72-61.18ZM66.41-61.18L66.41 0L56.28 0L56.28-61.18L66.41-61.18ZM110.90-32.21L110.90-32.21L110.90-32.21Q112.81-31.96 114.97-30.96L114.97-30.96L114.97-30.96Q117.12-29.97 118.99-28.14L118.99-28.14L118.99-28.14Q120.86-26.31 122.10-23.70L122.10-23.70L122.10-23.70Q123.35-21.08 123.35-17.68L123.35-17.68L123.35-17.68Q123.35-13.53 122.10-10.54L122.10-10.54L122.10-10.54Q120.86-7.55 118.99-5.60L118.99-5.60L118.99-5.60Q117.12-3.65 114.92-2.53L114.92-2.53L114.92-2.53Q112.72-1.41 110.69-0.83L110.69-0.83L110.69-0.83Q108.66-0.25 107.08-0.12L107.08-0.12L107.08-0.12Q105.50 0 105.00 0L105.00 0L95.38 0L95.38-7.30L104.42-7.30L104.42-7.30Q108.82-7.30 111.31-10.13L111.31-10.13L111.31-10.13Q113.80-12.95 113.80-17.68L113.80-17.68L113.80-17.68Q113.80-22.16 111.23-25.23L111.23-25.23L111.23-25.23Q108.66-28.31 103.68-28.31L103.68-28.31L95.38-28.31L95.38-35.03L99.36-35.03L99.36-35.03Q101.19-35.03 103.10-35.11L103.10-35.11L103.10-35.11Q105.00-35.20 106.67-36.03L106.67-36.03L106.67-36.03Q108.33-36.86 109.36-38.85L109.36-38.85L109.36-38.85Q110.40-40.84 110.40-44.58L110.40-44.58L110.40-44.58Q110.40-46.07 109.99-47.69L109.99-47.69L109.99-47.69Q109.57-49.31 108.33-50.63L108.33-50.63L108.33-50.63Q107.08-51.96 104.76-52.79L104.76-52.79L104.76-52.79Q102.43-53.62 98.61-53.62L98.61-53.62L95.38-53.62L95.38-61.18L99.61-61.18L99.61-61.18Q103.51-61.18 107.16-60.26L107.16-60.26L107.16-60.26Q110.82-59.35 113.64-57.36L113.64-57.36L113.64-57.36Q116.46-55.37 118.12-52.17L118.12-52.17L118.12-52.17Q119.78-48.97 119.78-44.58L119.78-44.58L119.78-44.58Q119.78-42.00 118.95-39.89L118.95-39.89L118.95-39.89Q118.12-37.77 116.88-36.19L116.88-36.19L116.88-36.19Q115.63-34.61 114.01-33.58L114.01-33.58L114.01-33.58Q112.39-32.54 110.90-32.21ZM82.01 0L82.01-61.18L91.97-61.18L91.97 0L82.01 0ZM136.13-30.88L136.13-30.88L136.13-30.88Q136.13-38.27 137.92-43.95L137.92-43.95L137.92-43.95Q139.70-49.64 142.90-53.58L142.90-53.58L142.90-53.58Q146.09-57.52 150.45-59.64L150.45-59.64L150.45-59.64Q154.81-61.76 159.96-62.09L159.96-62.09L159.96-53.79L159.96-53.79Q157.13-53.46 154.64-52.05L154.64-52.05L154.64-52.05Q152.15-50.63 150.33-47.90L150.33-47.90L150.33-47.90Q148.50-45.16 147.42-40.92L147.42-40.92L147.42-40.92Q146.34-36.69 146.26-30.88L146.26-30.88L146.26-30.88Q146.34-24.99 147.42-20.79L147.42-20.79L147.42-20.79Q148.50-16.60 150.37-13.78L150.37-13.78L150.37-13.78Q152.24-10.96 154.73-9.50L154.73-9.50L154.73-9.50Q157.22-8.05 159.96-7.80L159.96-7.80L159.96 0.42L159.96 0.42Q154.89 0.08 150.49-2.03L150.49-2.03L150.49-2.03Q146.09-4.15 142.90-8.09L142.90-8.09L142.90-8.09Q139.70-12.04 137.92-17.76L137.92-17.76L137.92-17.76Q136.13-23.49 136.13-30.88ZM163.28-53.87L163.28-62.09L163.28-62.09Q168.34-61.84 172.70-59.68L172.70-59.68L172.70-59.68Q177.06-57.52 180.25-53.58L180.25-53.58L180.25-53.58Q183.45-49.64 185.27-43.95L185.27-43.95L185.27-43.95Q187.10-38.27 187.10-30.88L187.10-30.88L187.10-30.88Q187.10-23.49 185.27-17.76L185.27-17.76L185.27-17.76Q183.45-12.04 180.25-8.09L180.25-8.09L180.25-8.09Q177.06-4.15 172.74-2.03L172.74-2.03L172.74-2.03Q168.42 0.08 163.28 0.42L163.28 0.42L163.28-7.80L163.28-7.80Q166.10-8.13 168.59-9.59L168.59-9.59L168.59-9.59Q171.08-11.04 172.91-13.82L172.91-13.82L172.91-13.82Q174.73-16.60 175.81-20.79L175.81-20.79L175.81-20.79Q176.89-24.99 176.97-30.88L176.97-30.88L176.97-30.88Q176.89-36.77 175.81-40.96L175.81-40.96L175.81-40.96Q174.73-45.16 172.86-47.94L172.86-47.94L172.86-47.94Q171.00-50.72 168.51-52.17L168.51-52.17L168.51-52.17Q166.02-53.62 163.28-53.87L163.28-53.87ZM233.17-61.18L233.17-31.88L233.17-31.88Q233.17-25.48 234.00-21.04L234.00-21.04L234.00-21.04Q234.83-16.60 236.41-13.74L236.41-13.74L236.41-13.74Q237.98-10.87 240.18-9.46L240.18-9.46L240.18-9.46Q242.38-8.05 245.12-7.80L245.12-7.80L245.12 0.42L245.12 0.42Q240.06 0.08 235.95-2.03L235.95-2.03L235.95-2.03Q231.84-4.15 229.02-8.09L229.02-8.09L229.02-8.09Q226.20-12.04 224.62-17.76L224.62-17.76L224.62-17.76Q223.04-23.49 223.04-30.88L223.04-30.88L223.04-61.18L233.17-61.18ZM260.56-61.18L270.61-61.18L270.61-30.88L270.61-30.88Q270.61-23.49 269.03-17.76L269.03-17.76L269.03-17.76Q267.45-12.04 264.59-8.09L264.59-8.09L264.59-8.09Q261.72-4.15 257.66-2.03L257.66-2.03L257.66-2.03Q253.59 0.08 248.53 0.42L248.53 0.42L248.53-7.80L248.53-7.80Q251.26-8.13 253.46-9.50L253.46-9.50L253.46-9.50Q255.66-10.87 257.24-13.70L257.24-13.70L257.24-13.70Q258.82-16.52 259.69-20.96L259.69-20.96L259.69-20.96Q260.56-25.40 260.56-31.88L260.56-31.88L260.56-61.18ZM295.34-61.18L295.34 0L285.21 0L285.21-61.18L295.34-61.18Z" fill="#dc93f8"></path></g></g><style>text {
  font-size: 64px;
  font-family: Arial Black;
  dominant-baseline: central;
  text-anchor: middle;
}</style></svg>