<svg version="1.1" id="Layer_1" xmlns="http://www.w3.org/2000/svg" xmlns:xlink="http://www.w3.org/1999/xlink" x="0px" y="0px"
	 width="100%" viewBox="0 0 828 301" enable-background="new 0 0 828 301" xml:space="preserve">
<path fill="#010101" opacity="1.000000" stroke="none" 
	d="
M527.000000,302.000000 
	C351.372101,302.000000 176.244217,302.000000 1.058165,302.000000 
	C1.058165,201.727676 1.058165,101.455322 1.058165,1.091482 
	C276.877869,1.091482 552.755798,1.091482 828.816895,1.091482 
	C828.816895,101.333069 828.816895,201.666504 828.816895,302.000000 
	C728.455322,302.000000 627.977661,302.000000 527.000000,302.000000 
M177.995529,166.388992 
	C178.321152,166.635651 178.646759,166.882324 179.910278,167.217300 
	C190.972427,167.358536 202.034592,167.499771 213.396652,167.925888 
	C213.897888,167.834366 214.399109,167.742844 215.644394,167.391037 
	C216.414597,167.227478 217.184799,167.063904 218.202026,167.402908 
	C218.805801,167.287079 219.409576,167.171249 220.939621,167.208023 
	C232.312561,167.208023 243.685486,167.208023 255.236557,167.208023 
	C255.236557,139.987793 255.250015,113.566109 255.186325,87.144600 
	C255.183838,86.110092 254.443756,85.077370 253.613098,83.453857 
	C251.990509,83.293091 250.364700,82.967049 248.745834,82.998436 
	C238.352341,83.199913 227.960068,83.692787 217.567978,83.678062 
	C205.498917,83.660965 193.430252,83.092720 181.361923,83.110214 
	C179.648132,83.112694 177.937180,85.070160 176.148132,86.133125 
	C176.148132,86.133125 176.198807,86.191719 175.536240,86.435143 
	C175.082794,87.987267 174.629349,89.539398 174.079880,91.077560 
	C174.079880,91.077560 174.151855,91.142639 173.559830,91.375526 
	C173.453934,91.963470 173.348038,92.551414 173.118500,93.104149 
	C173.118500,93.104149 173.212402,93.191971 172.552948,93.428635 
	C171.778610,95.663094 171.004257,97.897552 170.125824,100.109467 
	C170.125824,100.109467 170.197418,100.188324 169.565155,100.408661 
	C169.386154,101.255844 169.207153,102.103035 168.960114,103.685905 
	C166.707748,108.897964 164.455399,114.110016 162.203033,119.322067 
	C161.845215,119.221054 161.487396,119.120049 161.129578,119.019035 
	C161.129578,94.320595 161.129578,69.622147 161.129578,44.725197 
	C149.202728,44.725197 137.696182,44.725197 126.178497,44.725197 
	C126.178497,85.741753 126.178497,126.298615 126.178497,166.943253 
	C137.967941,166.943253 149.492111,166.943253 161.496277,166.943253 
	C161.496277,153.780655 161.496277,141.039719 161.496277,128.298798 
	C161.777313,128.252792 162.058350,128.206787 162.339401,128.160797 
	C167.296707,139.937927 172.254013,151.715073 177.076996,164.203674 
	C177.423386,164.772217 177.769775,165.340759 178.008179,165.987259 
	C178.008179,165.987259 178.126602,165.926834 177.995529,166.388992 
M480.167236,91.324631 
	C479.746002,89.312737 479.324768,87.300835 478.382050,84.637993 
	C466.886536,84.637993 455.390991,84.637993 443.440857,84.637993 
	C445.384460,91.961235 447.163757,98.679489 448.950684,105.395721 
	C454.079102,124.671486 459.271057,143.930740 464.280273,163.237411 
	C465.098480,166.390930 466.533752,167.535965 469.791412,167.384796 
	C475.273254,167.130432 480.776794,167.390076 486.268646,167.291321 
	C491.398163,167.199081 498.040253,168.788757 501.226105,166.201706 
	C504.419250,163.608749 504.259277,156.788422 505.395721,151.781586 
	C507.665192,141.783005 509.816193,131.757523 512.327148,120.327354 
	C515.529785,135.676331 518.475159,149.481232 521.242859,163.321655 
	C521.789612,166.055862 522.822815,167.373383 525.778381,167.339111 
	C535.598877,167.225174 545.422302,167.225128 555.242676,167.341583 
	C557.872742,167.372772 559.012634,166.423035 559.710693,163.875488 
	C566.742676,138.213608 573.898438,112.585670 581.361877,86.798027 
	C581.435669,86.698082 581.584473,86.583961 581.568787,86.500908 
	C581.526611,86.277802 581.414124,86.068001 581.313721,85.302383 
	C581.238647,85.134857 581.163574,84.967331 580.844788,84.072342 
	C571.123291,83.842415 561.401489,83.517471 551.680664,83.542923 
	C550.797241,83.545227 549.359375,85.702980 549.133789,87.022980 
	C547.994446,93.688126 547.183777,100.409111 546.234192,107.107162 
	C545.178955,114.551270 544.098267,121.991768 543.028625,129.433838 
	C542.769775,129.390244 542.510864,129.346649 542.251953,129.303055 
	C541.104431,125.232224 539.956848,121.161400 538.740662,116.440956 
	C538.594849,116.031319 538.448975,115.621681 538.613037,114.583504 
	C538.232483,113.325378 537.851929,112.067245 537.384155,110.228706 
	C537.310120,109.844536 537.236084,109.460365 537.541016,108.562149 
	C537.039062,107.072441 536.537109,105.582733 535.889526,103.266136 
	C535.222656,99.490761 534.555847,95.715393 534.366638,91.602531 
	C534.021484,90.672203 533.676392,89.741882 533.252197,88.200005 
	C533.207397,87.791344 533.162598,87.382683 533.551025,86.522232 
	C531.641663,85.440186 529.795105,83.585457 527.810974,83.424316 
	C522.364014,82.981941 516.859070,83.268929 511.377350,83.234451 
	C497.507843,83.147232 497.690735,83.174606 495.077209,97.000610 
	C492.944855,108.281128 490.306976,119.466087 487.860413,130.845901 
	C486.842133,130.030975 486.094360,129.432571 485.247650,128.208542 
	C485.201599,127.788788 485.155518,127.369034 485.571045,126.383339 
	C484.882324,122.842018 484.193634,119.300705 483.368378,115.070808 
	C483.266327,114.376289 483.164307,113.681770 483.484467,112.400482 
	C482.803345,108.869240 482.122192,105.338005 481.312958,101.103828 
	C481.206696,100.397209 481.100433,99.690582 481.389313,98.458694 
	C480.905792,96.383408 480.422272,94.308128 479.912720,92.074539 
	C479.912720,92.074539 479.865387,91.921257 480.167236,91.324631 
M765.928162,102.675667 
	C762.747375,94.177582 757.452881,87.538574 748.726135,84.393745 
	C734.711670,79.343414 722.071655,81.860405 710.979370,92.969757 
	C710.644958,91.221565 710.273987,90.398026 710.376831,89.638626 
	C711.046631,84.691063 708.463867,83.876038 704.196045,84.022163 
	C695.880676,84.306862 687.548035,84.209808 679.225159,84.089447 
	C676.036194,84.043327 674.865784,85.123009 674.873901,88.435638 
	C674.965515,125.897919 674.957214,163.360565 674.879822,200.822906 
	C674.873291,203.961914 675.698608,205.278198 679.088562,205.204849 
	C687.908691,205.014069 696.740234,204.997345 705.558472,205.236023 
	C709.385864,205.339630 710.385498,203.896240 710.325073,200.281906 
	C710.138672,189.129944 710.243835,177.972900 710.268005,166.817902 
	C710.271667,165.111877 710.446716,163.406219 710.557495,161.433990 
	C711.785095,161.816879 712.326965,161.849579 712.693787,162.119873 
	C729.424988,174.449722 749.877075,171.030090 761.012207,153.476807 
	C770.953857,137.804810 770.975159,120.782005 765.928162,102.675667 
M111.597580,155.072891 
	C125.540192,138.133560 122.293480,115.952461 103.951286,104.074562 
	C99.648125,101.287979 94.929565,99.128052 90.339638,96.803154 
	C85.454002,94.328476 80.205154,92.446678 75.641739,89.492241 
	C70.234856,85.991714 71.197525,79.097260 77.343559,77.168236 
	C81.026169,76.012405 85.341156,75.420319 89.065727,76.146103 
	C97.260071,77.742859 105.260155,80.336571 113.879562,82.669533 
	C113.879562,73.989639 113.968239,64.902962 113.747726,55.823792 
	C113.724693,54.875237 112.008652,53.414467 110.848038,53.129986 
	C93.819794,48.956165 76.682823,47.336308 59.614738,52.682785 
	C41.725796,58.286392 31.441439,74.727753 34.291378,92.223923 
	C36.525707,105.940765 45.217789,114.179367 57.144211,119.728912 
	C62.714638,122.320923 68.482292,124.495735 74.009735,127.171227 
	C78.030136,129.117249 80.800430,132.361084 79.718353,137.159271 
	C78.572044,142.242294 74.010010,143.419693 69.917549,142.999863 
	C63.383053,142.329483 56.787640,141.058563 50.555130,139.013870 
	C45.499310,137.355225 40.938988,134.186218 35.583920,131.386459 
	C35.583920,141.553970 35.469162,151.346634 35.733345,161.129074 
	C35.765331,162.313477 37.634350,163.998199 39.003979,164.511169 
	C52.184109,169.447479 65.926193,170.666000 79.769905,169.136139 
	C91.448883,167.845459 102.689980,164.791473 111.597580,155.072891 
M411.400299,167.996704 
	C416.847198,166.004639 422.651855,164.664230 427.677551,161.904999 
	C446.950867,151.323486 450.801239,124.667511 434.926727,109.569359 
	C429.513641,104.420998 422.381226,100.987511 415.783875,97.207825 
	C410.900055,94.409843 405.353821,92.723633 400.626923,89.717751 
	C398.703247,88.494446 397.117279,84.998985 397.315094,82.704384 
	C397.488770,80.690239 400.032135,78.143288 402.138428,77.215256 
	C404.911560,75.993454 408.456451,75.256981 411.360016,75.843613 
	C418.970734,77.381248 426.418396,79.732346 433.918701,81.803894 
	C435.262482,82.175049 436.547272,82.759750 438.514435,83.488564 
	C438.514435,73.956116 438.671936,65.173126 438.336151,56.409039 
	C438.288513,55.165958 436.028229,53.374310 434.476105,52.922977 
	C422.667694,49.489258 410.449402,48.174660 398.372406,49.849586 
	C390.479584,50.944225 382.319336,53.409363 375.354218,57.224049 
	C359.677826,65.809715 354.099030,84.629410 361.399048,100.875168 
	C365.344971,109.656563 372.448364,115.316132 380.950287,119.322586 
	C385.010345,121.235878 389.255188,122.753479 393.355865,124.585655 
	C395.781403,125.669411 398.712097,126.495483 400.290375,128.379913 
	C402.227051,130.692307 404.259491,134.176788 403.870880,136.802322 
	C403.538635,139.046738 400.090179,142.062958 397.597595,142.542770 
	C386.335388,144.710617 376.371124,140.317993 366.767792,135.008484 
	C364.835388,133.940094 362.946899,132.792389 360.024445,131.091141 
	C360.024445,141.095306 360.178589,149.872528 359.950745,158.639801 
	C359.855804,162.292435 361.234070,163.986389 364.645508,165.059235 
	C379.723663,169.801239 395.014954,170.696396 411.400299,167.996704 
M664.075012,113.291939 
	C661.432861,95.123894 653.398743,85.747833 638.429504,83.188477 
	C623.138367,80.574097 608.255371,82.595848 593.598572,87.057693 
	C592.131042,87.504425 589.805054,88.727486 589.760681,89.678246 
	C589.432861,96.695679 589.583313,103.735443 589.583313,111.372009 
	C592.245789,110.378448 593.930176,109.718521 595.635742,109.118683 
	C604.478455,106.008675 613.430420,103.405144 622.956543,104.747696 
	C627.251343,105.352982 630.810913,107.137978 631.820496,112.475822 
	C628.617126,112.966156 625.703735,113.436768 622.782715,113.854698 
	C613.269043,115.215912 603.524353,115.473320 594.812195,120.390129 
	C585.289734,125.764198 580.095154,135.979218 581.584656,146.834290 
	C583.268311,159.104385 589.322632,166.615799 600.135742,168.775391 
	C611.051758,170.955582 621.007751,168.962830 628.856140,160.276260 
	C629.573242,159.482590 630.477356,158.857910 631.470276,158.003632 
	C633.184387,167.413467 633.184387,167.413635 642.934143,167.428802 
	C643.933533,167.430359 644.932861,167.428009 645.932251,167.427979 
	C652.033386,167.427887 658.134460,167.427933 664.285767,167.427933 
	C664.285767,149.089752 664.285767,131.624481 664.075012,113.291939 
M348.944000,90.500008 
	C348.943420,76.513649 348.861847,62.526478 349.002686,48.541550 
	C349.035370,45.296535 348.042206,44.129677 344.731781,44.194950 
	C335.910645,44.368885 327.075287,44.474300 318.262726,44.146339 
	C314.069366,43.990280 313.354340,45.601128 313.366333,49.339291 
	C313.487427,87.135567 313.441986,124.932365 313.461914,162.729019 
	C313.462677,164.151718 313.653198,165.574341 313.761902,167.088867 
	C325.573547,167.088867 337.000793,167.088867 348.944000,167.088867 
	C348.944000,141.696716 348.944000,116.598366 348.944000,90.500008 
M266.761963,45.840981 
	C266.761963,86.200371 266.761963,126.559769 266.761963,166.893204 
	C278.839691,166.893204 290.341156,166.893204 302.074554,166.893204 
	C302.074554,164.563873 302.074371,162.742447 302.074585,160.921021 
	C302.077667,133.462860 302.080902,106.004684 302.083923,78.546516 
	C302.084991,68.561729 302.172394,58.575363 301.989716,48.593933 
	C301.963440,47.157566 300.641418,44.510181 299.909271,44.506744 
	C288.982819,44.455498 278.054749,44.755024 266.761963,45.840981 
M794.619385,136.073029 
	C791.570496,136.785950 788.296997,137.012177 785.512146,138.297287 
	C774.314209,143.464859 772.739319,157.772705 782.531738,165.302261 
	C789.827820,170.912292 797.965210,170.900269 806.094543,167.421875 
	C812.566772,164.652496 815.555237,159.211014 815.629089,152.331558 
	C815.697937,145.910233 811.202332,139.769821 804.781799,137.629364 
	C801.846252,136.650711 798.616394,136.554932 794.619385,136.073029 
M228.539963,47.846699 
	C221.979187,50.597019 217.975403,55.241508 217.891754,62.611538 
	C217.745972,75.458817 231.887421,83.447540 245.958847,78.517540 
	C252.726257,76.146545 257.210114,70.005112 257.263214,63.034267 
	C257.317139,55.954990 253.205917,49.546085 245.890045,47.956032 
	C240.592133,46.804565 234.849411,47.699543 228.539963,47.846699 
z"/>
<path fill="#3B80F2" opacity="1.000000" stroke="none" 
	d="
M766.057129,103.047989 
	C770.975159,120.782005 770.953857,137.804810 761.012207,153.476807 
	C749.877075,171.030090 729.424988,174.449722 712.693787,162.119873 
	C712.326965,161.849579 711.785095,161.816879 710.557495,161.433990 
	C710.446716,163.406219 710.271667,165.111877 710.268005,166.817902 
	C710.243835,177.972900 710.138672,189.129944 710.325073,200.281906 
	C710.385498,203.896240 709.385864,205.339630 705.558472,205.236023 
	C696.740234,204.997345 687.908691,205.014069 679.088562,205.204849 
	C675.698608,205.278198 674.873291,203.961914 674.879822,200.822906 
	C674.957214,163.360565 674.965515,125.897919 674.873901,88.435638 
	C674.865784,85.123009 676.036194,84.043327 679.225159,84.089447 
	C687.548035,84.209808 695.880676,84.306862 704.196045,84.022163 
	C708.463867,83.876038 711.046631,84.691063 710.376831,89.638626 
	C710.273987,90.398026 710.644958,91.221565 710.979370,92.969757 
	C722.071655,81.860405 734.711670,79.343414 748.726135,84.393745 
	C757.452881,87.538574 762.747375,94.177582 766.057129,103.047989 
M715.130493,110.495811 
	C707.767456,117.652893 708.742981,126.335480 710.757385,135.122284 
	C711.878906,140.014267 714.961853,142.976105 720.169922,143.218384 
	C725.422180,143.462738 729.832336,141.206192 730.951965,136.211197 
	C732.299194,130.200699 733.240234,123.692955 732.369873,117.688515 
	C731.120361,109.067795 724.153442,106.387970 715.130493,110.495811 
z"/>
<path fill="#3B7FF1" opacity="1.000000" stroke="none" 
	d="
M538.303162,115.212044 
	C538.448975,115.621681 538.594849,116.031319 538.543335,117.019745 
	C539.697083,125.196671 541.048218,132.794815 542.399353,140.392944 
	C544.004517,136.647079 544.545166,133.068451 545.014038,129.480453 
	C546.712830,116.481819 548.454407,103.488167 550.032349,90.474754 
	C550.531738,86.356308 552.080933,84.593483 556.647339,84.821159 
	C564.773865,85.226341 572.939270,84.849541 581.088440,84.799805 
	C581.163574,84.967331 581.238647,85.134857 581.172119,85.830956 
	C581.026855,86.555748 581.023193,86.751976 581.019470,86.948196 
	C573.898438,112.585670 566.742676,138.213608 559.710693,163.875488 
	C559.012634,166.423035 557.872742,167.372772 555.242676,167.341583 
	C545.422302,167.225128 535.598877,167.225174 525.778381,167.339111 
	C522.822815,167.373383 521.789612,166.055862 521.242859,163.321655 
	C518.475159,149.481232 515.529785,135.676331 512.327148,120.327354 
	C509.816193,131.757523 507.665192,141.783005 505.395721,151.781586 
	C504.259277,156.788422 504.419250,163.608749 501.226105,166.201706 
	C498.040253,168.788757 491.398163,167.199081 486.268646,167.291321 
	C480.776794,167.390076 475.273254,167.130432 469.791412,167.384796 
	C466.533752,167.535965 465.098480,166.390930 464.280273,163.237411 
	C459.271057,143.930740 454.079102,124.671486 448.950684,105.395721 
	C447.163757,98.679489 445.384460,91.961235 443.440857,84.637993 
	C455.390991,84.637993 466.886536,84.637993 478.597229,85.347244 
	C479.163391,88.011421 479.514374,89.966339 479.865387,91.921257 
	C479.865387,91.921257 479.912720,92.074539 479.865326,92.541641 
	C480.209991,95.000481 480.602051,96.992226 480.994141,98.983963 
	C481.100433,99.690582 481.206696,100.397209 481.238068,101.867050 
	C481.796204,106.082588 482.429230,109.534920 483.062256,112.987251 
	C483.164307,113.681770 483.266327,114.376289 483.287537,115.822540 
	C483.840973,120.032600 484.475220,123.490944 485.109467,126.949280 
	C485.155518,127.369034 485.201599,127.788788 485.181915,128.943298 
	C485.640808,133.764374 486.165466,137.850708 486.690125,141.937057 
	C491.057037,124.001991 494.868774,106.323402 498.617126,88.631401 
	C499.192200,85.917023 500.531525,84.782974 503.419128,84.837891 
	C511.738434,84.996086 520.065186,84.793823 528.382446,84.998131 
	C529.976135,85.037277 531.540100,86.284264 533.117798,86.974022 
	C533.162598,87.382683 533.207397,87.791344 533.183289,88.832428 
	C533.372559,90.289909 533.630737,91.114967 533.888977,91.940025 
	C534.555847,95.715393 535.222656,99.490761 535.914185,104.047882 
	C536.346558,106.245155 536.754333,107.660675 537.162048,109.076195 
	C537.236084,109.460365 537.310120,109.844536 537.284058,110.847977 
	C537.557007,112.715508 537.930115,113.963776 538.303162,115.212044 
z"/>
<path fill="#FBFBFB" opacity="1.000000" stroke="none" 
	d="
M111.349823,155.331039 
	C102.689980,164.791473 91.448883,167.845459 79.769905,169.136139 
	C65.926193,170.666000 52.184109,169.447479 39.003979,164.511169 
	C37.634350,163.998199 35.765331,162.313477 35.733345,161.129074 
	C35.469162,151.346634 35.583920,141.553970 35.583920,131.386459 
	C40.938988,134.186218 45.499310,137.355225 50.555130,139.013870 
	C56.787640,141.058563 63.383053,142.329483 69.917549,142.999863 
	C74.010010,143.419693 78.572044,142.242294 79.718353,137.159271 
	C80.800430,132.361084 78.030136,129.117249 74.009735,127.171227 
	C68.482292,124.495735 62.714638,122.320923 57.144211,119.728912 
	C45.217789,114.179367 36.525707,105.940765 34.291378,92.223923 
	C31.441439,74.727753 41.725796,58.286392 59.614738,52.682785 
	C76.682823,47.336308 93.819794,48.956165 110.848038,53.129986 
	C112.008652,53.414467 113.724693,54.875237 113.747726,55.823792 
	C113.968239,64.902962 113.879562,73.989639 113.879562,82.669533 
	C105.260155,80.336571 97.260071,77.742859 89.065727,76.146103 
	C85.341156,75.420319 81.026169,76.012405 77.343559,77.168236 
	C71.197525,79.097260 70.234856,85.991714 75.641739,89.492241 
	C80.205154,92.446678 85.454002,94.328476 90.339638,96.803154 
	C94.929565,99.128052 99.648125,101.287979 103.951286,104.074562 
	C122.293480,115.952461 125.540192,138.133560 111.349823,155.331039 
z"/>
<path fill="#FBFCFC" opacity="1.000000" stroke="none" 
	d="
M213.096741,167.641022 
	C202.034592,167.499771 190.972427,167.358536 179.382385,166.917160 
	C178.611847,166.386963 178.369232,166.156891 178.126602,165.926834 
	C178.126602,165.926834 178.008179,165.987259 178.098846,165.608078 
	C177.863449,164.649994 177.537384,164.071091 177.211319,163.492203 
	C172.254013,151.715073 167.296707,139.937927 162.339401,128.160797 
	C162.058350,128.206787 161.777313,128.252792 161.496277,128.298798 
	C161.496277,141.039719 161.496277,153.780655 161.496277,166.943253 
	C149.492111,166.943253 137.967941,166.943253 126.178497,166.943253 
	C126.178497,126.298615 126.178497,85.741753 126.178497,44.725197 
	C137.696182,44.725197 149.202728,44.725197 161.129578,44.725197 
	C161.129578,69.622147 161.129578,94.320595 161.129578,119.019035 
	C161.487396,119.120049 161.845215,119.221054 162.203033,119.322067 
	C164.455399,114.110016 166.707748,108.897964 169.249878,103.134689 
	C169.758896,101.785095 169.978165,100.986710 170.197418,100.188324 
	C170.197418,100.188324 170.125824,100.109467 170.463150,99.939026 
	C171.604446,97.576385 172.408417,95.384178 173.212402,93.191971 
	C173.212402,93.191971 173.118500,93.104149 173.441223,92.976334 
	C173.893250,92.279892 174.022552,91.711266 174.151855,91.142639 
	C174.151855,91.142639 174.079880,91.077560 174.415253,90.906296 
	C175.233337,89.220589 175.716080,87.706154 176.198807,86.191719 
	C176.198807,86.191719 176.148132,86.133125 176.529755,85.869217 
	C178.745605,85.135948 180.574203,84.288475 182.414993,84.261086 
	C191.564133,84.124931 200.716461,84.204941 209.867676,84.208458 
	C211.919937,84.209244 213.972198,84.208572 216.801773,84.208572 
	C215.891403,86.062401 215.528259,86.941368 215.050766,87.753075 
	C209.067719,97.923630 203.216812,108.176964 196.985092,118.193214 
	C195.033783,121.329575 195.175247,123.636948 196.863724,126.765129 
	C204.041794,140.063828 210.948914,153.508789 217.954987,166.900330 
	C217.184799,167.063904 216.414597,167.227478 214.986115,167.363129 
	C213.917465,167.437134 213.507095,167.539078 213.096741,167.641022 
z"/>
<path fill="#3A7FF1" opacity="1.000000" stroke="none" 
	d="
M410.981140,168.087845 
	C395.014954,170.696396 379.723663,169.801239 364.645508,165.059235 
	C361.234070,163.986389 359.855804,162.292435 359.950745,158.639801 
	C360.178589,149.872528 360.024445,141.095306 360.024445,131.091141 
	C362.946899,132.792389 364.835388,133.940094 366.767792,135.008484 
	C376.371124,140.317993 386.335388,144.710617 397.597595,142.542770 
	C400.090179,142.062958 403.538635,139.046738 403.870880,136.802322 
	C404.259491,134.176788 402.227051,130.692307 400.290375,128.379913 
	C398.712097,126.495483 395.781403,125.669411 393.355865,124.585655 
	C389.255188,122.753479 385.010345,121.235878 380.950287,119.322586 
	C372.448364,115.316132 365.344971,109.656563 361.399048,100.875168 
	C354.099030,84.629410 359.677826,65.809715 375.354218,57.224049 
	C382.319336,53.409363 390.479584,50.944225 398.372406,49.849586 
	C410.449402,48.174660 422.667694,49.489258 434.476105,52.922977 
	C436.028229,53.374310 438.288513,55.165958 438.336151,56.409039 
	C438.671936,65.173126 438.514435,73.956116 438.514435,83.488564 
	C436.547272,82.759750 435.262482,82.175049 433.918701,81.803894 
	C426.418396,79.732346 418.970734,77.381248 411.360016,75.843613 
	C408.456451,75.256981 404.911560,75.993454 402.138428,77.215256 
	C400.032135,78.143288 397.488770,80.690239 397.315094,82.704384 
	C397.117279,84.998985 398.703247,88.494446 400.626923,89.717751 
	C405.353821,92.723633 410.900055,94.409843 415.783875,97.207825 
	C422.381226,100.987511 429.513641,104.420998 434.926727,109.569359 
	C450.801239,124.667511 446.950867,151.323486 427.677551,161.904999 
	C422.651855,164.664230 416.847198,166.004639 410.981140,168.087845 
z"/>
<path fill="#3A7EF0" opacity="1.000000" stroke="none" 
	d="
M664.180420,113.725571 
	C664.285767,131.624481 664.285767,149.089752 664.285767,167.427933 
	C658.134460,167.427933 652.033386,167.427887 645.932251,167.427979 
	C644.932861,167.428009 643.933533,167.430359 642.934143,167.428802 
	C633.184387,167.413635 633.184387,167.413467 631.470276,158.003632 
	C630.477356,158.857910 629.573242,159.482590 628.856140,160.276260 
	C621.007751,168.962830 611.051758,170.955582 600.135742,168.775391 
	C589.322632,166.615799 583.268311,159.104385 581.584656,146.834290 
	C580.095154,135.979218 585.289734,125.764198 594.812195,120.390129 
	C603.524353,115.473320 613.269043,115.215912 622.782715,113.854698 
	C625.703735,113.436768 628.617126,112.966156 631.820496,112.475822 
	C630.810913,107.137978 627.251343,105.352982 622.956543,104.747696 
	C613.430420,103.405144 604.478455,106.008675 595.635742,109.118683 
	C593.930176,109.718521 592.245789,110.378448 589.583313,111.372009 
	C589.583313,103.735443 589.432861,96.695679 589.760681,89.678246 
	C589.805054,88.727486 592.131042,87.504425 593.598572,87.057693 
	C608.255371,82.595848 623.138367,80.574097 638.429504,83.188477 
	C653.398743,85.747833 661.432861,95.123894 664.180420,113.725571 
M618.357666,146.228424 
	C627.470581,147.143951 633.175781,140.432968 631.759277,129.867935 
	C627.544861,130.480896 623.296265,130.932556 619.121277,131.757309 
	C615.613586,132.450241 612.966736,134.476837 612.631165,138.321960 
	C612.304932,142.059341 614.116028,144.646286 618.357666,146.228424 
z"/>
<path fill="#F8F9F8" opacity="1.000000" stroke="none" 
	d="
M348.944000,91.000015 
	C348.944000,116.598366 348.944000,141.696716 348.944000,167.088867 
	C337.000793,167.088867 325.573547,167.088867 313.761902,167.088867 
	C313.653198,165.574341 313.462677,164.151718 313.461914,162.729019 
	C313.441986,124.932365 313.487427,87.135567 313.366333,49.339291 
	C313.354340,45.601128 314.069366,43.990280 318.262726,44.146339 
	C327.075287,44.474300 335.910645,44.368885 344.731781,44.194950 
	C348.042206,44.129677 349.035370,45.296535 349.002686,48.541550 
	C348.861847,62.526478 348.943420,76.513649 348.944000,91.000015 
z"/>
<path fill="#FCFCFC" opacity="1.000000" stroke="none" 
	d="
M266.944519,45.406391 
	C278.054749,44.755024 288.982819,44.455498 299.909271,44.506744 
	C300.641418,44.510181 301.963440,47.157566 301.989716,48.593933 
	C302.172394,58.575363 302.084991,68.561729 302.083923,78.546516 
	C302.080902,106.004684 302.077667,133.462860 302.074585,160.921021 
	C302.074371,162.742447 302.074554,164.563873 302.074554,166.893204 
	C290.341156,166.893204 278.839691,166.893204 266.761963,166.893204 
	C266.761963,126.559769 266.761963,86.200371 266.944519,45.406391 
z"/>
<path fill="#FBFCFC" opacity="1.000000" stroke="none" 
	d="
M254.047363,84.043808 
	C254.443756,85.077370 255.183838,86.110092 255.186325,87.144600 
	C255.250015,113.566109 255.236557,139.987793 255.236557,167.208023 
	C243.685486,167.208023 232.312561,167.208023 220.440582,166.659958 
	C219.941559,138.929337 219.941559,111.746773 219.941559,84.043808 
	C231.806976,84.043808 242.927170,84.043808 254.047363,84.043808 
z"/>
<path fill="#141516" opacity="1.000000" stroke="none" 
	d="
M253.830231,83.748833 
	C242.927170,84.043808 231.806976,84.043808 219.941559,84.043808 
	C219.941559,111.746773 219.941559,138.929337 219.977448,166.583649 
	C219.409576,167.171249 218.805801,167.287079 218.078506,167.151611 
	C210.948914,153.508789 204.041794,140.063828 196.863724,126.765129 
	C195.175247,123.636948 195.033783,121.329575 196.985092,118.193214 
	C203.216812,108.176964 209.067719,97.923630 215.050766,87.753075 
	C215.528259,86.941368 215.891403,86.062401 216.801773,84.208572 
	C213.972198,84.208572 211.919937,84.209244 209.867676,84.208458 
	C200.716461,84.204941 191.564133,84.124931 182.414993,84.261086 
	C180.574203,84.288475 178.745605,85.135948 176.568146,85.864044 
	C177.937180,85.070160 179.648132,83.112694 181.361923,83.110214 
	C193.430252,83.092720 205.498917,83.660965 217.567978,83.678062 
	C227.960068,83.692787 238.352341,83.199913 248.745834,82.998436 
	C250.364700,82.967049 251.990509,83.293091 253.830231,83.748833 
z"/>
<path fill="#F7F8F8" opacity="1.000000" stroke="none" 
	d="
M795.069702,136.065887 
	C798.616394,136.554932 801.846252,136.650711 804.781799,137.629364 
	C811.202332,139.769821 815.697937,145.910233 815.629089,152.331558 
	C815.555237,159.211014 812.566772,164.652496 806.094543,167.421875 
	C797.965210,170.900269 789.827820,170.912292 782.531738,165.302261 
	C772.739319,157.772705 774.314209,143.464859 785.512146,138.297287 
	C788.296997,137.012177 791.570496,136.785950 795.069702,136.065887 
z"/>
<path fill="#F8F9F8" opacity="1.000000" stroke="none" 
	d="
M228.922516,47.764317 
	C234.849411,47.699543 240.592133,46.804565 245.890045,47.956032 
	C253.205917,49.546085 257.317139,55.954990 257.263214,63.034267 
	C257.210114,70.005112 252.726257,76.146545 245.958847,78.517540 
	C231.887421,83.447540 217.745972,75.458817 217.891754,62.611538 
	C217.975403,55.241508 221.979187,50.597019 228.922516,47.764317 
z"/>
<path fill="#143C9F" opacity="1.000000" stroke="none" 
	d="
M580.966614,84.436073 
	C572.939270,84.849541 564.773865,85.226341 556.647339,84.821159 
	C552.080933,84.593483 550.531738,86.356308 550.032349,90.474754 
	C548.454407,103.488167 546.712830,116.481819 545.014038,129.480453 
	C544.545166,133.068451 544.004517,136.647079 542.399353,140.392944 
	C541.048218,132.794815 539.697083,125.196671 538.577637,117.344543 
	C539.956848,121.161400 541.104431,125.232224 542.251953,129.303055 
	C542.510864,129.346649 542.769775,129.390244 543.028625,129.433838 
	C544.098267,121.991768 545.178955,114.551270 546.234192,107.107162 
	C547.183777,100.409111 547.994446,93.688126 549.133789,87.022980 
	C549.359375,85.702980 550.797241,83.545227 551.680664,83.542923 
	C561.401489,83.517471 571.123291,83.842415 580.966614,84.436073 
z"/>
<path fill="#11348F" opacity="1.000000" stroke="none" 
	d="
M533.334412,86.748123 
	C531.540100,86.284264 529.976135,85.037277 528.382446,84.998131 
	C520.065186,84.793823 511.738434,84.996086 503.419128,84.837891 
	C500.531525,84.782974 499.192200,85.917023 498.617126,88.631401 
	C494.868774,106.323402 491.057037,124.001991 486.690125,141.937057 
	C486.165466,137.850708 485.640808,133.764374 485.231384,129.256104 
	C486.094360,129.432571 486.842133,130.030975 487.860413,130.845901 
	C490.306976,119.466087 492.944855,108.281128 495.077209,97.000610 
	C497.690735,83.174606 497.507843,83.147232 511.377350,83.234451 
	C516.859070,83.268929 522.364014,82.981941 527.810974,83.424316 
	C529.795105,83.585457 531.641663,85.440186 533.334412,86.748123 
z"/>
<path fill="#11348F" opacity="1.000000" stroke="none" 
	d="
M483.273376,112.693863 
	C482.429230,109.534920 481.796204,106.082588 481.302124,102.218521 
	C482.122192,105.338005 482.803345,108.869240 483.273376,112.693863 
z"/>
<path fill="#11348F" opacity="1.000000" stroke="none" 
	d="
M485.340271,126.666306 
	C484.475220,123.490944 483.840973,120.032600 483.355835,116.166824 
	C484.193634,119.300705 484.882324,122.842018 485.340271,126.666306 
z"/>
<path fill="#11348F" opacity="1.000000" stroke="none" 
	d="
M481.191711,98.721329 
	C480.602051,96.992226 480.209991,95.000481 479.878357,92.620789 
	C480.422272,94.308128 480.905792,96.383408 481.191711,98.721329 
z"/>
<path fill="#141516" opacity="1.000000" stroke="none" 
	d="
M172.882675,93.310303 
	C172.408417,95.384178 171.604446,97.576385 170.515198,99.950302 
	C171.004257,97.897552 171.778610,95.663094 172.882675,93.310303 
z"/>
<path fill="#11348F" opacity="1.000000" stroke="none" 
	d="
M480.016296,91.622940 
	C479.514374,89.966339 479.163391,88.011421 478.857971,85.672714 
	C479.324768,87.300835 479.746002,89.312737 480.016296,91.622940 
z"/>
<path fill="#143C9F" opacity="1.000000" stroke="none" 
	d="
M537.351562,108.819168 
	C536.754333,107.660675 536.346558,106.245155 535.986938,104.461334 
	C536.537109,105.582733 537.039062,107.072441 537.351562,108.819168 
z"/>
<path fill="#143C9F" opacity="1.000000" stroke="none" 
	d="
M538.458130,114.897774 
	C537.930115,113.963776 537.557007,112.715508 537.327637,111.138184 
	C537.851929,112.067245 538.232483,113.325378 538.458130,114.897774 
z"/>
<path fill="#141516" opacity="1.000000" stroke="none" 
	d="
M175.867523,86.313431 
	C175.716080,87.706154 175.233337,89.220589 174.463257,90.913277 
	C174.629349,89.539398 175.082794,87.987267 175.867523,86.313431 
z"/>
<path fill="#11348F" opacity="1.000000" stroke="none" 
	d="
M534.127808,91.771278 
	C533.630737,91.114967 533.372559,90.289909 533.222839,89.138206 
	C533.676392,89.741882 534.021484,90.672203 534.127808,91.771278 
z"/>
<path fill="#141516" opacity="1.000000" stroke="none" 
	d="
M169.881287,100.298492 
	C169.978165,100.986710 169.758896,101.785095 169.283905,102.766846 
	C169.207153,102.103035 169.386154,101.255844 169.881287,100.298492 
z"/>
<path fill="#141516" opacity="1.000000" stroke="none" 
	d="
M173.855835,91.259079 
	C174.022552,91.711266 173.893250,92.279892 173.503036,92.993942 
	C173.348038,92.551414 173.453934,91.963470 173.855835,91.259079 
z"/>
<path fill="#141516" opacity="1.000000" stroke="none" 
	d="
M177.144165,163.847931 
	C177.537384,164.071091 177.863449,164.649994 178.152832,165.569107 
	C177.769775,165.340759 177.423386,164.772217 177.144165,163.847931 
z"/>
<path fill="#141516" opacity="1.000000" stroke="none" 
	d="
M178.061066,166.157913 
	C178.369232,166.156891 178.611847,166.386963 178.913422,166.873016 
	C178.646759,166.882324 178.321152,166.635651 178.061066,166.157913 
z"/>
<path fill="#141516" opacity="1.000000" stroke="none" 
	d="
M213.246704,167.783447 
	C213.507095,167.539078 213.917465,167.437134 214.614075,167.493256 
	C214.399109,167.742844 213.897888,167.834366 213.246704,167.783447 
z"/>
<path fill="#143C9F" opacity="1.000000" stroke="none" 
	d="
M581.190674,86.873108 
	C581.023193,86.751976 581.026855,86.555748 581.180054,86.106216 
	C581.414124,86.068001 581.526611,86.277802 581.568787,86.500908 
	C581.584473,86.583961 581.435669,86.698082 581.190674,86.873108 
z"/>
<path fill="#01030A" opacity="1.000000" stroke="none" 
	d="
M715.427307,110.267746 
	C724.153442,106.387970 731.120361,109.067795 732.369873,117.688515 
	C733.240234,123.692955 732.299194,130.200699 730.951965,136.211197 
	C729.832336,141.206192 725.422180,143.462738 720.169922,143.218384 
	C714.961853,142.976105 711.878906,140.014267 710.757385,135.122284 
	C708.742981,126.335480 707.767456,117.652893 715.427307,110.267746 
z"/>
<path fill="#010716" opacity="1.000000" stroke="none" 
	d="
M618.004272,146.103760 
	C614.116028,144.646286 612.304932,142.059341 612.631165,138.321960 
	C612.966736,134.476837 615.613586,132.450241 619.121277,131.757309 
	C623.296265,130.932556 627.544861,130.480896 631.759277,129.867935 
	C633.175781,140.432968 627.470581,147.143951 618.004272,146.103760 
z"/>
</svg>