<svg width="590.43125px" height="167.6px" xmlns="http://www.w3.org/2000/svg" viewBox="-45.21562499999999 -8.799999999999997 590.43125 167.6" style="background: rgb(0, 0, 0);" preserveAspectRatio="xMidYMid"><defs><filter id="editing-hole" x="-100%" y="-100%" width="300%" height="300%"><feFlood flood-color="#281300" result="black"></feFlood><feMorphology operator="dilate" radius="2" in="SourceGraphic" result="erode"></feMorphology><feGaussianBlur in="erode" stdDeviation="4" result="blur"></feGaussianBlur><feOffset in="blur" dx="2" dy="2" result="offset"></feOffset><feComposite operator="atop" in="offset" in2="black" result="merge"></feComposite><feComposite operator="in" in="merge" in2="SourceGraphic" result="inner-shadow"></feComposite></filter></defs><g filter="url(#editing-hole)"><g transform="translate(-18.204991817474365, 118.08000183105469)"><path d="M8.53 0L8.53-69.09L19.78-69.09L19.78 0L8.53 0ZM23.63-69.09L28.41-69.09L28.41-69.09Q32.81-69.09 37.13-67.69L37.13-67.69L37.13-67.69Q41.44-66.28 44.86-63.47L44.86-63.47L44.86-63.47Q48.28-60.66 50.39-56.67L50.39-56.67L50.39-56.67Q52.50-52.69 52.50-47.72L52.50-47.72L52.50-47.72Q52.50-42.47 50.72-38.20L50.72-38.20L50.72-38.20Q48.94-33.94 45.75-31.03L45.75-31.03L45.75-31.03Q42.56-28.13 38.06-26.53L38.06-26.53L38.06-26.53Q33.56-24.94 28.13-24.94L28.13-24.94L23.63-24.94L23.63-33.19L30.09-33.19L30.09-33.19Q32.16-33.19 34.17-33.89L34.17-33.89L34.17-33.89Q36.19-34.59 37.88-36.19L37.88-36.19L37.88-36.19Q39.56-37.78 40.59-40.64L40.59-40.64L40.59-40.64Q41.63-43.50 41.63-47.72L41.63-47.72L41.63-47.72Q41.63-49.41 41.16-51.61L41.16-51.61L41.16-51.61Q40.69-53.81 39.23-55.83L39.23-55.83L39.23-55.83Q37.78-57.84 35.16-59.20L35.16-59.20L35.16-59.20Q32.53-60.56 28.22-60.56L28.22-60.56L23.63-60.56L23.63-69.09ZM63.94-34.88L63.94-34.88L63.94-34.88Q63.94-43.22 65.95-49.64L65.95-49.64L65.95-49.64Q67.97-56.06 71.58-60.52L71.58-60.52L71.58-60.52Q75.19-64.97 80.11-67.36L80.11-67.36L80.11-67.36Q85.03-69.75 90.84-70.13L90.84-70.13L90.84-60.75L90.84-60.75Q87.66-60.38 84.84-58.78L84.84-58.78L84.84-58.78Q82.03-57.19 79.97-54.09L79.97-54.09L79.97-54.09Q77.91-51 76.69-46.22L76.69-46.22L76.69-46.22Q75.47-41.44 75.38-34.88L75.38-34.88L75.38-34.88Q75.47-28.22 76.69-23.48L76.69-23.48L76.69-23.48Q77.91-18.75 80.02-15.56L80.02-15.56L80.02-15.56Q82.13-12.38 84.94-10.73L84.94-10.73L84.94-10.73Q87.75-9.09 90.84-8.81L90.84-8.81L90.84 0.47L90.84 0.47Q85.13 0.09 80.16-2.30L80.16-2.30L80.16-2.30Q75.19-4.69 71.58-9.14L71.58-9.14L71.58-9.14Q67.97-13.59 65.95-20.06L65.95-20.06L65.95-20.06Q63.94-26.53 63.94-34.88ZM94.59-60.84L94.59-70.13L94.59-70.13Q100.31-69.84 105.23-67.41L105.23-67.41L105.23-67.41Q110.16-64.97 113.77-60.52L113.77-60.52L113.77-60.52Q117.38-56.06 119.44-49.64L119.44-49.64L119.44-49.64Q121.50-43.22 121.50-34.88L121.50-34.88L121.50-34.88Q121.50-26.53 119.44-20.06L119.44-20.06L119.44-20.06Q117.38-13.59 113.77-9.14L113.77-9.14L113.77-9.14Q110.16-4.69 105.28-2.30L105.28-2.30L105.28-2.30Q100.41 0.09 94.59 0.47L94.59 0.47L94.59-8.81L94.59-8.81Q97.78-9.19 100.59-10.83L100.59-10.83L100.59-10.83Q103.41-12.47 105.47-15.61L105.47-15.61L105.47-15.61Q107.53-18.75 108.75-23.48L108.75-23.48L108.75-23.48Q109.97-28.22 110.06-34.88L110.06-34.88L110.06-34.88Q109.97-41.53 108.75-46.27L108.75-46.27L108.75-46.27Q107.53-51 105.42-54.14L105.42-54.14L105.42-54.14Q103.31-57.28 100.50-58.92L100.50-58.92L100.50-58.92Q97.69-60.56 94.59-60.84L94.59-60.84ZM137.16 0L137.16-69.09L148.41-69.09L148.41 0L137.16 0ZM168.28-27.19L184.03 0L172.13 0L159.09-25.03L159.09-25.03Q158.81-25.03 158.48-24.98L158.48-24.98L158.48-24.98Q158.16-24.94 157.50-24.94L157.50-24.94L157.50-24.94Q156.84-24.94 155.58-24.94L155.58-24.94L155.58-24.94Q154.31-24.94 152.25-24.94L152.25-24.94L152.25-33.19L158.63-33.19L158.63-33.19Q160.69-33.19 162.75-33.89L162.75-33.89L162.75-33.89Q164.81-34.59 166.50-36.19L166.50-36.19L166.50-36.19Q168.19-37.78 169.22-40.64L169.22-40.64L169.22-40.64Q170.25-43.50 170.25-47.72L170.25-47.72L170.25-47.72Q170.25-49.41 169.78-51.61L169.78-51.61L169.78-51.61Q169.31-53.81 167.86-55.83L167.86-55.83L167.86-55.83Q166.41-57.84 163.78-59.20L163.78-59.20L163.78-59.20Q161.16-60.56 156.84-60.56L156.84-60.56L152.25-60.56L152.25-69.09L157.03-69.09L157.03-69.09Q161.44-69.09 165.75-67.69L165.75-67.69L165.75-67.69Q170.06-66.28 173.48-63.47L173.48-63.47L173.48-63.47Q176.91-60.66 179.02-56.67L179.02-56.67L179.02-56.67Q181.13-52.69 181.13-47.72L181.13-47.72L181.13-47.72Q181.13-40.22 177.66-34.97L177.66-34.97L177.66-34.97Q174.19-29.72 168.28-27.19L168.28-27.19ZM195.38-69.09L247.97-69.09L247.97-61.41L227.34-61.41L227.34 0L216 0L216-61.41L195.38-61.41L195.38-69.09ZM261.66 0L261.66-69.09L273.09-69.09L273.09 0L261.66 0ZM301.97-38.81L301.97-31.13L276.94-31.13L276.94-38.81L301.97-38.81ZM276.94-69.09L304.88-69.09L304.88-60.56L276.94-60.56L276.94-69.09ZM315.38-34.88L315.38-34.88L315.38-34.88Q315.38-43.22 317.39-49.64L317.39-49.64L317.39-49.64Q319.41-56.06 323.02-60.52L323.02-60.52L323.02-60.52Q326.63-64.97 331.55-67.36L331.55-67.36L331.55-67.36Q336.47-69.75 342.28-70.13L342.28-70.13L342.28-60.75L342.28-60.75Q339.09-60.38 336.28-58.78L336.28-58.78L336.28-58.78Q333.47-57.19 331.41-54.09L331.41-54.09L331.41-54.09Q329.34-51 328.13-46.22L328.13-46.22L328.13-46.22Q326.91-41.44 326.81-34.88L326.81-34.88L326.81-34.88Q326.91-28.22 328.13-23.48L328.13-23.48L328.13-23.48Q329.34-18.75 331.45-15.56L331.45-15.56L331.45-15.56Q333.56-12.38 336.38-10.73L336.38-10.73L336.38-10.73Q339.19-9.09 342.28-8.81L342.28-8.81L342.28 0.47L342.28 0.47Q336.56 0.09 331.59-2.30L331.59-2.30L331.59-2.30Q326.63-4.69 323.02-9.14L323.02-9.14L323.02-9.14Q319.41-13.59 317.39-20.06L317.39-20.06L317.39-20.06Q315.38-26.53 315.38-34.88ZM346.03-60.84L346.03-70.13L346.03-70.13Q351.75-69.84 356.67-67.41L356.67-67.41L356.67-67.41Q361.59-64.97 365.20-60.52L365.20-60.52L365.20-60.52Q368.81-56.06 370.88-49.64L370.88-49.64L370.88-49.64Q372.94-43.22 372.94-34.88L372.94-34.88L372.94-34.88Q372.94-26.53 370.88-20.06L370.88-20.06L370.88-20.06Q368.81-13.59 365.20-9.14L365.20-9.14L365.20-9.14Q361.59-4.69 356.72-2.30L356.72-2.30L356.72-2.30Q351.84 0.09 346.03 0.47L346.03 0.47L346.03-8.81L346.03-8.81Q349.22-9.19 352.03-10.83L352.03-10.83L352.03-10.83Q354.84-12.47 356.91-15.61L356.91-15.61L356.91-15.61Q358.97-18.75 360.19-23.48L360.19-23.48L360.19-23.48Q361.41-28.22 361.50-34.88L361.50-34.88L361.50-34.88Q361.41-41.53 360.19-46.27L360.19-46.27L360.19-46.27Q358.97-51 356.86-54.14L356.86-54.14L356.86-54.14Q354.75-57.28 351.94-58.92L351.94-58.92L351.94-58.92Q349.13-60.56 346.03-60.84L346.03-60.84ZM388.88-69.09L400.31-69.09L400.31-8.53L432.09-8.53L432.09 0L388.88 0L388.88-69.09ZM455.16-69.09L455.16 0L443.72 0L443.72-69.09L455.16-69.09ZM471-34.88L471-34.88L471-34.88Q471-43.22 473.02-49.64L473.02-49.64L473.02-49.64Q475.03-56.06 478.64-60.52L478.64-60.52L478.64-60.52Q482.25-64.97 487.17-67.36L487.17-67.36L487.17-67.36Q492.09-69.75 497.91-70.13L497.91-70.13L497.91-60.75L497.91-60.75Q494.72-60.38 491.91-58.78L491.91-58.78L491.91-58.78Q489.09-57.19 487.03-54.09L487.03-54.09L487.03-54.09Q484.97-51 483.75-46.22L483.75-46.22L483.75-46.22Q482.53-41.44 482.44-34.88L482.44-34.88L482.44-34.88Q482.53-28.22 483.75-23.48L483.75-23.48L483.75-23.48Q484.97-18.75 487.08-15.56L487.08-15.56L487.08-15.56Q489.19-12.38 492-10.73L492-10.73L492-10.73Q494.81-9.09 497.91-8.81L497.91-8.81L497.91 0.47L497.91 0.47Q492.19 0.09 487.22-2.30L487.22-2.30L487.22-2.30Q482.25-4.69 478.64-9.14L478.64-9.14L478.64-9.14Q475.03-13.59 473.02-20.06L473.02-20.06L473.02-20.06Q471-26.53 471-34.88ZM501.66-60.84L501.66-70.13L501.66-70.13Q507.38-69.84 512.30-67.41L512.30-67.41L512.30-67.41Q517.22-64.97 520.83-60.52L520.83-60.52L520.83-60.52Q524.44-56.06 526.50-49.64L526.50-49.64L526.50-49.64Q528.56-43.22 528.56-34.88L528.56-34.88L528.56-34.88Q528.56-26.53 526.50-20.06L526.50-20.06L526.50-20.06Q524.44-13.59 520.83-9.14L520.83-9.14L520.83-9.14Q517.22-4.69 512.34-2.30L512.34-2.30L512.34-2.30Q507.47 0.09 501.66 0.47L501.66 0.47L501.66-8.81L501.66-8.81Q504.84-9.19 507.66-10.83L507.66-10.83L507.66-10.83Q510.47-12.47 512.53-15.61L512.53-15.61L512.53-15.61Q514.59-18.75 515.81-23.48L515.81-23.48L515.81-23.48Q517.03-28.22 517.13-34.88L517.13-34.88L517.13-34.88Q517.03-41.53 515.81-46.27L515.81-46.27L515.81-46.27Q514.59-51 512.48-54.14L512.48-54.14L512.48-54.14Q510.38-57.28 507.56-58.92L507.56-58.92L507.56-58.92Q504.75-60.56 501.66-60.84L501.66-60.84Z" fill="#72cbfd"></path></g></g><style>text {
  font-size: 64px;
  font-family: Arial Black;
  dominant-baseline: central;
  text-anchor: middle;
}</style></svg>