<svg width="590.43125px" height="167.6px" xmlns="http://www.w3.org/2000/svg" viewBox="-45.21562499999999 -8.799999999999997 590.43125 167.6" style="background: rgb(0, 0, 0);" preserveAspectRatio="xMidYMid"><defs><filter id="editing-hole" x="-100%" y="-100%" width="300%" height="300%"><feFlood flood-color="#281300" result="black"></feFlood><feMorphology operator="dilate" radius="2" in="SourceGraphic" result="erode"></feMorphology><feGaussianBlur in="erode" stdDeviation="4" result="blur"></feGaussianBlur><feOffset in="blur" dx="2" dy="2" result="offset"></feOffset><feComposite operator="atop" in="offset" in2="black" result="merge"></feComposite><feComposite operator="in" in="merge" in2="SourceGraphic" result="inner-shadow"></feComposite></filter></defs><g filter="url(#editing-hole)"><g transform="translate(38.204991817474365, 118.08000183105469)"><path d="M35.78-51.71L35.78-51.71L35.78-51.71Q35.36-51.88 34.78-52.29L34.78-52.29L34.78-52.29Q34.20-52.71 33.12-53.08L33.12-53.08L33.12-53.08Q32.04-53.46 30.38-53.71L30.38-53.71L30.38-53.71Q28.72-53.96 26.15-53.79L26.15-53.79L26.15-62.17L26.15-62.17Q29.80-62.09 33.58-61.38L33.58-61.38L33.58-61.38Q37.35-60.68 39.68-59.18L39.68-59.18L39.68-59.18Q39.18-58.11 38.52-56.82L38.52-56.82L38.52-56.82Q37.85-55.53 37.27-54.41L37.27-54.41L37.27-54.41Q36.69-53.29 36.27-52.54L36.27-52.54L36.27-52.54Q35.86-51.80 35.78-51.71ZM7.14-45.07L7.14-45.07L7.14-45.07Q7.14-48.73 8.38-51.63L8.38-51.63L8.38-51.63Q9.63-54.54 11.75-56.74L11.75-56.74L11.75-56.74Q13.86-58.94 16.73-60.22L16.73-60.22L16.73-60.22Q19.59-61.51 22.74-61.92L22.74-61.92L22.74-53.21L22.74-53.21Q20.09-52.29 18.34-50.01L18.34-50.01L18.34-50.01Q16.60-47.73 16.60-45.41L16.60-45.41L16.60-45.41Q16.60-42.17 18.34-40.18L18.34-40.18L18.34-40.18Q20.09-38.18 22.74-36.69L22.74-36.69L22.74-27.23L22.74-27.23Q20.00-28.55 17.27-30.09L17.27-30.09L17.27-30.09Q14.53-31.63 12.29-33.70L12.29-33.70L12.29-33.70Q10.04-35.78 8.59-38.52L8.59-38.52L8.59-38.52Q7.14-41.25 7.14-45.07ZM6.72-4.07L8.47-11.21L8.47-11.21Q9.63-10.54 11.41-9.92L11.41-9.92L11.41-9.92Q13.20-9.30 15.11-8.76L15.11-8.76L15.11-8.76Q17.02-8.22 18.93-7.89L18.93-7.89L18.93-7.89Q20.83-7.55 22.50-7.55L22.50-7.55L22.74-7.55L22.74 0.33L22.58 0.33L22.58 0.33Q20.59 0.33 18.47 0.12L18.47 0.12L18.47 0.12Q16.35-0.08 14.19-0.58L14.19-0.58L14.19-0.58Q12.04-1.08 10.09-1.95L10.09-1.95L10.09-1.95Q8.13-2.82 6.72-4.07L6.72-4.07ZM26.15-25.32L26.15-35.03L26.15-35.03Q28.89-33.78 31.75-32.37L31.75-32.37L31.75-32.37Q34.61-30.96 36.94-28.93L36.94-28.93L36.94-28.93Q39.26-26.89 40.76-23.99L40.76-23.99L40.76-23.99Q42.25-21.08 42.25-16.77L42.25-16.77L42.25-16.77Q42.25-13.78 41.13-10.96L41.13-10.96L41.13-10.96Q40.01-8.13 37.98-5.85L37.98-5.85L37.98-5.85Q35.94-3.57 32.95-1.99L32.95-1.99L32.95-1.99Q29.97-0.42 26.15 0.08L26.15 0.08L26.15-7.89L26.15-7.89Q32.95-9.55 32.95-16.93L32.95-16.93L32.95-16.93Q32.95-19.84 31.04-21.75L31.04-21.75L31.04-21.75Q29.14-23.66 26.15-25.32L26.15-25.32ZM88.57-46.82L72.13-23.49L90.73 0L79.27 0L65.66-17.93L65.66-29.47L77.28-46.82L88.57-46.82ZM62.26 0L52.13 0L52.13-64.50L62.26-64.50L62.26 0ZM110.98-46.82L110.98 0L100.85 0L100.85-46.82L110.98-46.82ZM111.89-61.76L111.89-61.76L111.89-61.76Q111.89-59.27 110.15-57.57L110.15-57.57L110.15-57.57Q108.41-55.86 105.92-55.86L105.92-55.86L105.92-55.86Q103.43-55.86 101.73-57.61L101.73-57.61L101.73-57.61Q100.02-59.35 100.02-61.76L100.02-61.76L100.02-61.76Q100.02-64.25 101.77-65.99L101.77-65.99L101.77-65.99Q103.51-67.73 105.92-67.73L105.92-67.73L105.92-67.73Q108.41-67.73 110.15-65.99L110.15-65.99L110.15-65.99Q111.89-64.25 111.89-61.76ZM135.05-64.50L135.05-14.28L135.05-14.28Q135.05-11.46 135.80-9.84L135.80-9.84L135.80-9.84Q136.55-8.22 137.88-7.43L137.88-7.43L137.88-7.43Q139.20-6.64 140.91-6.39L140.91-6.39L140.91-6.39Q142.61-6.14 144.60-6.14L144.60-6.14L144.60 0L144.60 0Q143.52 0.17 142.36 0.25L142.36 0.25L142.36 0.25Q141.45 0.33 140.20 0.37L140.20 0.37L140.20 0.37Q138.96 0.42 137.71 0.42L137.71 0.42L137.71 0.42Q136.46 0.42 135.22 0.33L135.22 0.33L135.22 0.33Q133.97 0.25 132.98 0.08L132.98 0.08L132.98 0.08Q130.16-0.50 128.58-2.41L128.58-2.41L128.58-2.41Q127.00-4.32 126.17-6.68L126.17-6.68L126.17-6.68Q125.34-9.05 125.13-11.29L125.13-11.29L125.13-11.29Q124.93-13.53 124.93-14.78L124.93-14.78L124.93-15.77L124.93-64.50L135.05-64.50ZM165.19-64.50L165.19-14.28L165.19-14.28Q165.19-11.46 165.93-9.84L165.93-9.84L165.93-9.84Q166.68-8.22 168.01-7.43L168.01-7.43L168.01-7.43Q169.34-6.64 171.04-6.39L171.04-6.39L171.04-6.39Q172.74-6.14 174.73-6.14L174.73-6.14L174.73 0L174.73 0Q173.65 0.17 172.49 0.25L172.49 0.25L172.49 0.25Q171.58 0.33 170.33 0.37L170.33 0.37L170.33 0.37Q169.09 0.42 167.84 0.42L167.84 0.42L167.84 0.42Q166.60 0.42 165.35 0.33L165.35 0.33L165.35 0.33Q164.11 0.25 163.11 0.08L163.11 0.08L163.11 0.08Q160.29-0.50 158.71-2.41L158.71-2.41L158.71-2.41Q157.13-4.32 156.30-6.68L156.30-6.68L156.30-6.68Q155.47-9.05 155.27-11.29L155.27-11.29L155.27-11.29Q155.06-13.53 155.06-14.78L155.06-14.78L155.06-15.77L155.06-64.50L165.19-64.50ZM213.99-51.71L213.99-51.71L213.99-51.71Q213.58-51.88 213.00-52.29L213.00-52.29L213.00-52.29Q212.42-52.71 211.34-53.08L211.34-53.08L211.34-53.08Q210.26-53.46 208.60-53.71L208.60-53.71L208.60-53.71Q206.94-53.96 204.37-53.79L204.37-53.79L204.37-62.17L204.37-62.17Q208.02-62.09 211.79-61.38L211.79-61.38L211.79-61.38Q215.57-60.68 217.90-59.18L217.90-59.18L217.90-59.18Q217.40-58.11 216.73-56.82L216.73-56.82L216.73-56.82Q216.07-55.53 215.49-54.41L215.49-54.41L215.49-54.41Q214.91-53.29 214.49-52.54L214.49-52.54L214.49-52.54Q214.08-51.80 213.99-51.71ZM185.36-45.07L185.36-45.07L185.36-45.07Q185.36-48.73 186.60-51.63L186.60-51.63L186.60-51.63Q187.85-54.54 189.96-56.74L189.96-56.74L189.96-56.74Q192.08-58.94 194.94-60.22L194.94-60.22L194.94-60.22Q197.81-61.51 200.96-61.92L200.96-61.92L200.96-53.21L200.96-53.21Q198.31-52.29 196.56-50.01L196.56-50.01L196.56-50.01Q194.82-47.73 194.82-45.41L194.82-45.41L194.82-45.41Q194.82-42.17 196.56-40.18L196.56-40.18L196.56-40.18Q198.31-38.18 200.96-36.69L200.96-36.69L200.96-27.23L200.96-27.23Q198.22-28.55 195.48-30.09L195.48-30.09L195.48-30.09Q192.74-31.63 190.50-33.70L190.50-33.70L190.50-33.70Q188.26-35.78 186.81-38.52L186.81-38.52L186.81-38.52Q185.36-41.25 185.36-45.07ZM184.94-4.07L186.68-11.21L186.68-11.21Q187.85-10.54 189.63-9.92L189.63-9.92L189.63-9.92Q191.42-9.30 193.33-8.76L193.33-8.76L193.33-8.76Q195.23-8.22 197.14-7.89L197.14-7.89L197.14-7.89Q199.05-7.55 200.71-7.55L200.71-7.55L200.96-7.55L200.96 0.33L200.80 0.33L200.80 0.33Q198.80 0.33 196.69 0.12L196.69 0.12L196.69 0.12Q194.57-0.08 192.41-0.58L192.41-0.58L192.41-0.58Q190.25-1.08 188.30-1.95L188.30-1.95L188.30-1.95Q186.35-2.82 184.94-4.07L184.94-4.07ZM204.37-25.32L204.37-35.03L204.37-35.03Q207.10-33.78 209.97-32.37L209.97-32.37L209.97-32.37Q212.83-30.96 215.16-28.93L215.16-28.93L215.16-28.93Q217.48-26.89 218.97-23.99L218.97-23.99L218.97-23.99Q220.47-21.08 220.47-16.77L220.47-16.77L220.47-16.77Q220.47-13.78 219.35-10.96L219.35-10.96L219.35-10.96Q218.23-8.13 216.19-5.85L216.19-5.85L216.19-5.85Q214.16-3.57 211.17-1.99L211.17-1.99L211.17-1.99Q208.18-0.42 204.37 0.08L204.37 0.08L204.37-7.89L204.37-7.89Q211.17-9.55 211.17-16.93L211.17-16.93L211.17-16.93Q211.17-19.84 209.26-21.75L209.26-21.75L209.26-21.75Q207.35-23.66 204.37-25.32L204.37-25.32ZM275.17-7.80L283.89-46.82L294.76-46.82L281.56 0.33L268.61 0.33L263.63-19.01L263.63-46.82L267.29-46.82L275.17-7.80ZM239.98-46.82L247.70-7.80L256.41-46.82L260.23-46.82L260.23-21.50L254.25 0.33L241.22 0.33L229.18-46.82L239.98-46.82ZM314.60-14.11L314.60-14.11L314.60-14.11Q314.60-10.38 316.14-8.55L316.14-8.55L316.14-8.55Q317.67-6.72 320.58-6.39L320.58-6.39L320.58 0.33L320.58 0.33Q320.24 0.42 319.50 0.42L319.50 0.42L319.50 0.42Q316.67 0.42 314.06-0.33L314.06-0.33L314.06-0.33Q311.45-1.08 309.45-2.74L309.45-2.74L309.45-2.74Q307.46-4.40 306.34-7.14L306.34-7.14L306.34-7.14Q305.22-9.88 305.22-13.86L305.22-13.86L305.22-13.86Q305.22-17.68 306.84-20.46L306.84-20.46L306.84-20.46Q308.46-23.24 310.99-25.03L310.99-25.03L310.99-25.03Q313.52-26.81 316.76-27.68L316.76-27.68L316.76-27.68Q320.00-28.55 323.32-28.55L323.32-28.55L326.97-28.55L326.97-22.66L325.14-22.66L325.14-22.66Q323.48-22.66 321.66-22.33L321.66-22.33L321.66-22.33Q319.83-22.00 318.25-21.08L318.25-21.08L318.25-21.08Q316.67-20.17 315.64-18.47L315.64-18.47L315.64-18.47Q314.60-16.77 314.60-14.11ZM340.42-14.53L340.42-13.86L340.42-13.86Q340.42-13.20 340.50-11.91L340.50-11.91L340.50-11.91Q340.58-10.63 340.83-9.30L340.83-9.30L340.83-9.30Q341.08-7.97 341.62-6.89L341.62-6.89L341.62-6.89Q342.16-5.81 343.07-5.48L343.07-5.48L340.42 0.08L340.42 0.08Q339.34 0.08 338.13-0.42L338.13-0.42L338.13-0.42Q336.93-0.91 335.81-1.83L335.81-1.83L335.81-1.83Q334.69-2.74 333.90-3.86L333.90-3.86L333.90-3.86Q333.11-4.98 332.70-6.31L332.70-6.31L332.70-6.31Q331.87-4.23 329.42-2.61L329.42-2.61L329.42-2.61Q326.97-1.00 323.98-0.25L323.98-0.25L323.98-6.56L323.98-6.56Q325.97-6.97 327.59-8.18L327.59-8.18L327.59-8.18Q329.21-9.38 330.37-11.04L330.37-11.04L330.37-28.55L330.37-28.55Q330.37-32.62 329.96-35.03L329.96-35.03L329.96-35.03Q329.54-37.44 328.54-38.56L328.54-38.56L328.54-38.56Q327.55-39.68 326.10-39.97L326.10-39.97L326.10-39.97Q324.64-40.26 322.65-40.26L322.65-40.26L322.65-40.26Q320.83-40.26 319.21-39.80L319.21-39.80L319.21-39.80Q317.59-39.35 316.22-38.72L316.22-38.72L316.22-38.72Q314.85-38.10 313.81-37.35L313.81-37.35L313.81-37.35Q312.77-36.61 312.28-36.19L312.28-36.19L308.54-41.92L308.54-41.92Q309.37-42.83 311.03-43.79L311.03-43.79L311.03-43.79Q312.69-44.74 314.85-45.49L314.85-45.49L314.85-45.49Q317.01-46.24 319.54-46.69L319.54-46.69L319.54-46.69Q322.07-47.15 324.81-47.15L324.81-47.15L324.81-47.15Q327.30-47.15 329.67-46.65L329.67-46.65L329.67-46.65Q332.03-46.15 333.98-44.99L333.98-44.99L333.98-44.99Q335.93-43.83 337.39-41.88L337.39-41.88L337.39-41.88Q338.84-39.93 339.42-37.02L339.42-37.02L339.42-37.02Q340-34.12 340.21-31.17L340.21-31.17L340.21-31.17Q340.42-28.22 340.42-25.32L340.42-25.32L340.42-14.53ZM356.27-46.82L365.32-46.82L366.40-42.08L366.40 18.43L356.27 18.43L356.27-46.82ZM397.19-32.62L397.19-32.62L397.19-32.62Q398.19-28.80 398.19-24.07L398.19-24.07L398.19-24.07Q398.19-19.34 397.07-14.90L397.07-14.90L397.07-14.90Q395.95-10.46 393.66-7.06L393.66-7.06L393.66-7.06Q391.38-3.65 387.94-1.62L387.94-1.62L387.94-1.62Q384.49 0.42 379.84 0.42L379.84 0.42L379.84 0.42Q376.94 0.42 374.32-0.25L374.32-0.25L374.32-0.25Q371.71-0.91 369.80-1.99L369.80-1.99L369.80-10.63L369.80-10.63Q372.54-7.39 376.52-7.39L376.52-7.39L376.52-7.39Q379.01-7.39 381.05-8.63L381.05-8.63L381.05-8.63Q383.08-9.88 384.53-11.99L384.53-11.99L384.53-11.99Q385.99-14.11 386.82-17.06L386.82-17.06L386.82-17.06Q387.65-20.00 387.65-23.33L387.65-23.33L387.65-23.33Q387.65-26.56 386.90-29.47L386.90-29.47L386.90-29.47Q386.15-32.37 384.78-34.61L384.78-34.61L384.78-34.61Q383.41-36.86 381.46-38.18L381.46-38.18L381.46-38.18Q379.51-39.51 376.94-39.51L376.94-39.51L376.94-39.51Q374.78-39.51 373.00-38.64L373.00-38.64L373.00-38.64Q371.21-37.77 369.80-36.19L369.80-36.19L369.80-44.99L369.80-44.99Q371.71-46.07 374.03-46.65L374.03-46.65L374.03-46.65Q376.36-47.23 378.85-47.23L378.85-47.23L378.85-47.23Q381.59-47.23 384.41-46.48L384.41-46.48L384.41-46.48Q387.23-45.74 389.68-43.99L389.68-43.99L389.68-43.99Q392.13-42.25 394.12-39.43L394.12-39.43L394.12-39.43Q396.11-36.61 397.19-32.62ZM416.87-5.64L416.87-5.64L416.87-5.64Q416.87-3.15 415.12-1.41L415.12-1.41L415.12-1.41Q413.38 0.33 410.89 0.33L410.89 0.33L410.89 0.33Q408.40 0.33 406.70-1.41L406.70-1.41L406.70-1.41Q405.00-3.15 405.00-5.64L405.00-5.64L405.00-5.64Q405.00-8.13 406.74-9.84L406.74-9.84L406.74-9.84Q408.48-11.54 410.89-11.54L410.89-11.54L410.89-11.54Q413.38-11.54 415.12-9.84L415.12-9.84L415.12-9.84Q416.87-8.13 416.87-5.64Z" fill="#e26c00"></path></g></g><style>text {
  font-size: 64px;
  font-family: Arial Black;
  dominant-baseline: central;
  text-anchor: middle;
}</style></svg>