<svg width="590.43125px" height="167.6px" xmlns="http://www.w3.org/2000/svg" viewBox="-45.21562499999999 -8.799999999999997 590.43125 167.6" style="background: rgb(0, 0, 0);" preserveAspectRatio="xMidYMid"><defs><filter id="editing-hole" x="-100%" y="-100%" width="300%" height="300%"><feFlood flood-color="#281300" result="black"></feFlood><feMorphology operator="dilate" radius="2" in="SourceGraphic" result="erode"></feMorphology><feGaussianBlur in="erode" stdDeviation="4" result="blur"></feGaussianBlur><feOffset in="blur" dx="2" dy="2" result="offset"></feOffset><feComposite operator="atop" in="offset" in2="black" result="merge"></feComposite><feComposite operator="in" in="merge" in2="SourceGraphic" result="inner-shadow"></feComposite></filter></defs><g filter="url(#editing-hole)"><g transform="translate(110.204991817474365, 118.08000183105469)"><path d="M4.23-61.18L50.80-61.18L50.80-54.37L32.54-54.37L32.54 0L22.50 0L22.50-54.37L4.23-54.37L4.23-61.18ZM61.43-30.88L61.43-30.88L61.43-30.88Q61.43-38.27 63.21-43.95L63.21-43.95L63.21-43.95Q65.00-49.64 68.19-53.58L68.19-53.58L68.19-53.58Q71.39-57.52 75.74-59.64L75.74-59.64L75.74-59.64Q80.10-61.76 85.25-62.09L85.25-62.09L85.25-53.79L85.25-53.79Q82.43-53.46 79.94-52.05L79.94-52.05L79.94-52.05Q77.45-50.63 75.62-47.90L75.62-47.90L75.62-47.90Q73.79-45.16 72.71-40.92L72.71-40.92L72.71-40.92Q71.64-36.69 71.55-30.88L71.55-30.88L71.55-30.88Q71.64-24.99 72.71-20.79L72.71-20.79L72.71-20.79Q73.79-16.60 75.66-13.78L75.66-13.78L75.66-13.78Q77.53-10.96 80.02-9.50L80.02-9.50L80.02-9.50Q82.51-8.05 85.25-7.80L85.25-7.80L85.25 0.42L85.25 0.42Q80.19 0.08 75.79-2.03L75.79-2.03L75.79-2.03Q71.39-4.15 68.19-8.09L68.19-8.09L68.19-8.09Q65.00-12.04 63.21-17.76L63.21-17.76L63.21-17.76Q61.43-23.49 61.43-30.88ZM88.57-53.87L88.57-62.09L88.57-62.09Q93.63-61.84 97.99-59.68L97.99-59.68L97.99-59.68Q102.35-57.52 105.54-53.58L105.54-53.58L105.54-53.58Q108.74-49.64 110.57-43.95L110.57-43.95L110.57-43.95Q112.39-38.27 112.39-30.88L112.39-30.88L112.39-30.88Q112.39-23.49 110.57-17.76L110.57-17.76L110.57-17.76Q108.74-12.04 105.54-8.09L105.54-8.09L105.54-8.09Q102.35-4.15 98.03-2.03L98.03-2.03L98.03-2.03Q93.72 0.08 88.57 0.42L88.57 0.42L88.57-7.80L88.57-7.80Q91.39-8.13 93.88-9.59L93.88-9.59L93.88-9.59Q96.37-11.04 98.20-13.82L98.20-13.82L98.20-13.82Q100.02-16.60 101.10-20.79L101.10-20.79L101.10-20.79Q102.18-24.99 102.27-30.88L102.27-30.88L102.27-30.88Q102.18-36.77 101.10-40.96L101.10-40.96L101.10-40.96Q100.02-45.16 98.16-47.94L98.16-47.94L98.16-47.94Q96.29-50.72 93.80-52.17L93.80-52.17L93.80-52.17Q91.31-53.62 88.57-53.87L88.57-53.87ZM126.75 0L126.75-61.18L136.71-61.18L136.71 0L126.75 0ZM140.12-61.18L145.18-61.18L145.18-61.18Q152.90-61.18 158.75-58.73L158.75-58.73L158.75-58.73Q164.60-56.28 168.46-52.21L168.46-52.21L168.46-52.21Q172.32-48.14 174.23-42.96L174.23-42.96L174.23-42.96Q176.14-37.77 176.14-32.29L176.14-32.29L176.14-32.29Q176.14-24.74 174.52-19.38L174.52-19.38L174.52-19.38Q172.91-14.03 170.42-10.42L170.42-10.42L170.42-10.42Q167.92-6.81 164.81-4.73L164.81-4.73L164.81-4.73Q161.70-2.66 158.79-1.62L158.79-1.62L158.79-1.62Q155.89-0.58 153.48-0.29L153.48-0.29L153.48-0.29Q151.07 0 149.91 0L149.91 0L140.12 0L140.12-7.30L146.59-7.30L146.59-7.30Q156.72-7.30 161.20-13.78L161.20-13.78L161.20-13.78Q165.68-20.25 165.68-32.54L165.68-32.54L165.68-32.54Q165.68-36.36 164.77-40.09L164.77-40.09L164.77-40.09Q163.86-43.83 161.24-46.86L161.24-46.86L161.24-46.86Q158.63-49.89 154.15-51.76L154.15-51.76L154.15-51.76Q149.66-53.62 142.52-53.62L142.52-53.62L140.12-53.62L140.12-61.18ZM189.09-30.88L189.09-30.88L189.09-30.88Q189.09-38.27 190.88-43.95L190.88-43.95L190.88-43.95Q192.66-49.64 195.86-53.58L195.86-53.58L195.86-53.58Q199.05-57.52 203.41-59.64L203.41-59.64L203.41-59.64Q207.77-61.76 212.92-62.09L212.92-62.09L212.92-53.79L212.92-53.79Q210.09-53.46 207.60-52.05L207.60-52.05L207.60-52.05Q205.11-50.63 203.29-47.90L203.29-47.90L203.29-47.90Q201.46-45.16 200.38-40.92L200.38-40.92L200.38-40.92Q199.30-36.69 199.22-30.88L199.22-30.88L199.22-30.88Q199.30-24.99 200.38-20.79L200.38-20.79L200.38-20.79Q201.46-16.60 203.33-13.78L203.33-13.78L203.33-13.78Q205.20-10.96 207.69-9.50L207.69-9.50L207.69-9.50Q210.18-8.05 212.92-7.80L212.92-7.80L212.92 0.42L212.92 0.42Q207.85 0.08 203.45-2.03L203.45-2.03L203.45-2.03Q199.05-4.15 195.86-8.09L195.86-8.09L195.86-8.09Q192.66-12.04 190.88-17.76L190.88-17.76L190.88-17.76Q189.09-23.49 189.09-30.88ZM216.24-53.87L216.24-62.09L216.24-62.09Q221.30-61.84 225.66-59.68L225.66-59.68L225.66-59.68Q230.01-57.52 233.21-53.58L233.21-53.58L233.21-53.58Q236.41-49.64 238.23-43.95L238.23-43.95L238.23-43.95Q240.06-38.27 240.06-30.88L240.06-30.88L240.06-30.88Q240.06-23.49 238.23-17.76L238.23-17.76L238.23-17.76Q236.41-12.04 233.21-8.09L233.21-8.09L233.21-8.09Q230.01-4.15 225.70-2.03L225.70-2.03L225.70-2.03Q221.38 0.08 216.24 0.42L216.24 0.42L216.24-7.80L216.24-7.80Q219.06-8.13 221.55-9.59L221.55-9.59L221.55-9.59Q224.04-11.04 225.86-13.82L225.86-13.82L225.86-13.82Q227.69-16.60 228.77-20.79L228.77-20.79L228.77-20.79Q229.85-24.99 229.93-30.88L229.93-30.88L229.93-30.88Q229.85-36.77 228.77-40.96L228.77-40.96L228.77-40.96Q227.69-45.16 225.82-47.94L225.82-47.94L225.82-47.94Q223.96-50.72 221.46-52.17L221.46-52.17L221.46-52.17Q218.97-53.62 216.24-53.87L216.24-53.87Z" fill="#2bde73"></path></g></g><style>text {
  font-size: 64px;
  font-family: Arial Black;
  dominant-baseline: central;
  text-anchor: middle;
}</style></svg>